<svg width="512" height="512" xmlns="http://www.w3.org/2000/svg" xml:space="preserve" style="enable-background:new 0 0 512 512;" version="1.1">

 <g>
  <title>background</title>
  <rect fill="none" id="canvas_background" height="828" width="1534" y="-1" x="-1"/>
 </g>
 <g>
  <title>Layer 1</title>
  <circle id="svg_1" fill="#B1FFFF" r="256" cy="258" cx="255"/>
  <g id="svg_3"/>
  <g id="svg_4"/>
  <g id="svg_5"/>
  <g id="svg_6"/>
  <g id="svg_7"/>
  <g id="svg_8"/>
  <g id="svg_9"/>
  <g id="svg_10"/>
  <g id="svg_11"/>
  <g id="svg_12"/>
  <g id="svg_13"/>
  <g id="svg_14"/>
  <g id="svg_15"/>
  <g id="svg_16"/>
  <g id="svg_17"/>
  <path id="svg_22" d="m313.005777,271.382899c-0.210067,-0.078934 -0.360636,-0.329747 -0.326417,-0.543735c0.021577,-0.134936 0.476797,-0.954091 0.516552,-0.929521c0.012976,0.008019 0.128442,0.198999 0.256592,0.424399c0.205282,0.361067 0.232999,0.428395 0.232999,0.565983c0,0.278886 -0.223197,0.507325 -0.491191,0.502728c-0.078204,-0.001342 -0.163045,-0.010276 -0.188535,-0.019854l0,0zm0.210463,-0.140269c0.006953,-0.036106 -0.009289,-0.053714 -0.049548,-0.053714c-0.091753,0 -0.21903,-0.116208 -0.247465,-0.225944c-0.030333,-0.117059 -0.110759,-0.130981 -0.122639,-0.021229c-0.022887,0.211453 0.381094,0.501104 0.419652,0.300888l0,0z" fill-opacity="null" stroke-opacity="null" stroke-width="null" stroke="null" fill="#FFB27C"/>
  <path stroke="null" id="svg_23" d="m212.254697,389.078979c-45.157749,-16.628296 -77.525327,-69.464382 -70.169477,-114.543131c4.638378,-28.425573 102.496469,-200.988622 111.042578,-195.8127c2.789336,1.689344 27.610946,41.921031 55.159132,89.403766c44.129296,76.062332 50.087581,90.245605 50.087581,119.229933c0,58.750034 -47.980351,106.872975 -105.590705,105.90454c-16.811513,-0.282642 -35.049623,-2.164719 -40.529109,-4.182398l0,-0.000011zm45.242962,-29.549106c1.494741,-7.606042 -1.996897,-11.315477 -10.651211,-11.315477c-19.72407,0 -47.084555,-24.480367 -53.197306,-47.597418c-6.520643,-24.659618 -23.809774,-27.592382 -26.363472,-4.472034c-4.920051,44.544641 81.923166,105.562544 90.211979,63.384929l0.000011,0z" stroke-opacity="null" stroke-width="null" fill="#FABA6F"/>
  <path id="svg_24" d="m-448.308993,385.392871c-0.210067,-0.078934 -0.360636,-0.329747 -0.326417,-0.543735c0.021577,-0.134936 0.476797,-0.954091 0.516552,-0.929521c0.012976,0.008019 0.128442,0.198999 0.256592,0.424399c0.205282,0.361067 0.232999,0.428395 0.232999,0.565983c0,0.278886 -0.223197,0.507325 -0.491191,0.502728c-0.078204,-0.001342 -0.163045,-0.010276 -0.188535,-0.019854l0,0zm0.210463,-0.140269c0.006953,-0.036106 -0.009289,-0.053714 -0.049548,-0.053714c-0.091753,0 -0.21903,-0.116208 -0.247465,-0.225944c-0.030333,-0.117059 -0.110759,-0.130981 -0.122639,-0.021229c-0.022887,0.211453 0.381094,0.501104 0.419652,0.300888l0,0z" stroke-opacity="null" stroke-width="null" stroke="null" fill="#FABA6F"/>
 </g>
</svg>